name Walk8.mot
datacolumns 19
datarows 17
range 1.81000000 1.89000000
endheader

                time	   L_ground_force_vx	   L_ground_force_vy	   L_ground_force_vz	   L_ground_force_px	   L_ground_force_py	   L_ground_force_pz	   R_ground_force_vx	   R_ground_force_vy	   R_ground_force_vz	   R_ground_force_px	   R_ground_force_py	   R_ground_force_pz	   L_ground_torque_x	   L_ground_torque_y	   L_ground_torque_z	   R_ground_torque_x	   R_ground_torque_y	   R_ground_torque_z	
          1.81000000	         35.95371782	        927.42609153	         69.38171216	         -0.10941505	          0.00000000	         -0.03037064	          0.00369197	          0.01653832	          0.00252910	          0.00005342	          0.00000000	          0.00001484	          0.00000000	         -1.15060675	          0.00000000	          0.00000000	         -0.00099038	          0.00000000	
          1.81500000	         38.98003519	        935.01295852	         70.36791992	         -0.10844886	          0.00000000	         -0.03054691	          0.00122804	          0.06101858	          0.00614240	          0.00010061	          0.00000000	          0.00002771	          0.00000000	         -1.19907547	          0.00000000	          0.00000000	         -0.00075631	          0.00000000	
          1.82000000	         42.02651765	        942.84541425	         71.39814025	         -0.10747578	          0.00000000	         -0.03072083	         -0.00276562	          0.12285489	          0.01101937	          0.00016178	          0.00000000	          0.00004436	          0.00000000	         -1.24968308	          0.00000000	          0.00000000	         -0.00029803	          0.00000000	
          1.82500000	         45.13910358	        950.97951293	         72.45625526	         -0.10650406	          0.00000000	         -0.03088954	         -0.00865216	          0.20412972	          0.01726543	          0.00023723	          0.00000000	          0.00006485	          0.00000000	         -1.30335246	          0.00000000	          0.00000000	          0.00045335	          0.00000000	
          1.83000000	         48.36432916	        959.44418402	         73.52483334	         -0.10554147	          0.00000000	         -0.03105089	         -0.01676447	          0.30569311	          0.02487610	          0.00032562	          0.00000000	          0.00008881	          0.00000000	         -1.36039763	          0.00000000	          0.00000000	          0.00156913	          0.00000000	
          1.83500000	         51.74541112	        968.23789375	         74.58689126	         -0.10459416	          0.00000000	         -0.03120330	         -0.02734710	          0.42636846	          0.03367610	          0.00042329	          0.00000000	          0.00011523	          0.00000000	         -1.42052145	          0.00000000	          0.00000000	          0.00311553	          0.00000000	
          1.84000000	         55.31902585	        977.32859182	         75.62708582	         -0.10366705	          0.00000000	         -0.03134510	         -0.04047678	          0.56196395	          0.04324543	          0.00052340	          0.00000000	          0.00014220	          0.00000000	         -1.48295764	          0.00000000	          0.00000000	          0.00514273	          0.00000000	
          1.84500000	         59.11308807	        986.65416988	         76.63298528	         -0.10276313	          0.00000000	         -0.03147578	         -0.05595901	          0.70410286	          0.05283427	          0.00061495	          0.00000000	          0.00016673	          0.00000000	         -1.54651046	          0.00000000	          0.00000000	          0.00766966	          0.00000000	
          1.85000000	         63.14582354	        996.12694381	         77.59569002	         -0.10188365	          0.00000000	         -0.03159625	         -0.07320037	          0.83891575	          0.06127096	          0.00068188	          0.00000000	          0.00018441	          0.00000000	         -1.60985849	          0.00000000	          0.00000000	          0.01066421	          0.00000000	
          1.85500000	         67.42397998	       1005.64058946	         78.51157997	         -0.10102871	          0.00000000	         -0.03170739	         -0.09105853	          0.94567836	          0.06687054	          0.00070215	          0.00000000	          0.00018925	          0.00000000	         -1.67156557	          0.00000000	          0.00000000	          0.01401867	          0.00000000	
          1.86000000	         71.94460006	       1015.07973428	         79.38201751	         -0.10019624	          0.00000000	         -0.03181072	         -0.10767611	          0.99553312	          0.06735540	          0.00064717	          0.00000000	          0.00017344	          0.00000000	         -1.72946367	          0.00000000	          0.00000000	          0.01752064	          0.00000000	
          1.86500000	         76.70006445	       1024.33186492	         80.21139353	         -0.09938240	          0.00000000	         -0.03190822	         -0.12030975	          0.95049843	          0.05980467	          0.00048161	          0.00000000	          0.00012741	          0.00000000	         -1.78079276	          0.00000000	          0.00000000	          0.02082076	          0.00000000	
          1.87000000	         81.68437283	       1033.29488246	         81.00481728	         -0.09858231	          0.00000000	         -0.03200107	         -0.12517281	          0.76304910	          0.04065461	          0.00016405	          0.00000000	          0.00003992	          0.00000000	         -1.82264216	          0.00000000	          0.00000000	          0.02339912	          0.00000000	
          1.87500000	         86.89750770	       1041.88249068	         81.76720737	         -0.09779085	          0.00000000	         -0.03208844	         -0.11731885	          0.37663903	          0.00577855	         -0.00035138	          0.00000000	         -0.00010144	          0.00000000	         -1.85250998	          0.00000000	          0.00000000	          0.02453398	          0.00000000	
          1.88000000	         92.35041615	       1050.02831510	         82.50149989	         -0.09700438	          0.00000000	         -0.03216870	         -0.09060283	         -0.27237115	         -0.04931913	         -0.00111179	          0.00000000	         -0.00030936	          0.00000000	         -1.86839994	          0.00000000	          0.00000000	          0.02327794	          0.00000000	
          1.88500000	         98.06630149	       1057.68410591	         83.20708096	         -0.09622166	          0.00000000	         -0.03224019	         -0.03776854	         -1.25083345	         -0.12915491	         -0.00216045	          0.00000000	         -0.00059543	          0.00000000	         -1.86874481	          0.00000000	          0.00000000	          0.01844847	          0.00000000	
          1.89000000	        104.07740442	       1064.81296268	         83.87884612	         -0.09544375	          0.00000000	         -0.03230161	          0.04927809	         -2.62236482	         -0.23772077	         -0.00352927	          0.00000000	         -0.00096810	          0.00000000	         -1.85264428	          0.00000000	          0.00000000	          0.00864227	          0.00000000	
